<svg id="Place_Your_Design_Here_Double_Click_to_Edit_" data-name="Place Your Design Here (Double Click to Edit)" xmlns="http://www.w3.org/2000/svg" width="137" height="137" viewBox="0 0 137 137">
  <circle id="Shape" cx="68.5" cy="68.5" r="68.5" fill="#ebf2f2"/>
  <path id="Place_Your_Design_Here_" data-name="Place Your Design Here " d="M14.311,108.868a1.654,1.654,0,0,1,0-3.308H57.094C43.321,95.969,41.455,94.9,37.671,91.316a1.662,1.662,0,0,1-.071-2.339,1.638,1.638,0,0,1,2.325-.07c5.929,5.612,20.132,14.273,20.843,15.323,1.2,1.779,1.452,1.248,7.813,1.248,6.961,0,9.856-7.376,9.976-7.69.082-.213-.887,1.451,14.3-24.2l-2.314-4.286L66.686,90.35c-1.74,4.666-1.656,4.537-1.895,4.83a1.647,1.647,0,0,1-2.813-1.625l1.373-3.684L48.988,77.228H39.8a1.654,1.654,0,0,1,0-3.308H78.918a2.3,2.3,0,0,0,1.71-3.913,2.261,2.261,0,0,0-1.61-.668,1.649,1.649,0,0,1-1.644-1.654c0-2.967,5.982-1.841,7.054,2.618,7.831-6.908,1.792-1.6,26.221-23.043,2.7-2.349,7.27-.119,7.27,3.818,0,1.645.081,1.087-7.308,14.483a5.938,5.938,0,0,1-7.983,2.393l-6.569,6.7L81.574,99.111A18.267,18.267,0,0,1,77,105.56h39.276a1.654,1.654,0,0,1,0,3.308ZM65.291,87.182l11.284-9.954H53.982Zm47.515-37.425L93.083,67.072l2.056,3.809,6.126-6.248a1.637,1.637,0,0,1,2.3-.037,2.654,2.654,0,0,0,4.165-.641c7.285-13.2,6.895-12.317,6.895-12.88a1.466,1.466,0,0,0-1.384-1.462A.657.657,0,0,0,112.807,49.757ZM33.16,86.384c-.117-.17-.234-.352-.352-.541a1.66,1.66,0,0,1,.508-2.282,1.639,1.639,0,0,1,2.27.512c.094.15.187.3.281.431a1.66,1.66,0,0,1-.419,2.3,1.638,1.638,0,0,1-2.288-.421ZM29.84,79.64A55.607,55.607,0,0,1,26.72,68a13.977,13.977,0,0,1-8.127-11.582,5.648,5.648,0,0,1-5.369-3.168c-1.226-2.528-.193-4.4.817-7.286a5.7,5.7,0,0,1,10.228-1.005,10.469,10.469,0,0,1,15.215,9.163c0,9.043.283,9.9-.887,11.9.647,0-4.718,0,30.952,0,2.9,0,3.982-1.084,6.344-3.46a1.637,1.637,0,0,1,2.326,0,1.66,1.66,0,0,1,0,2.339c-2.556,2.571-4.4,4.429-8.671,4.429-30.416,0-29.778.006-29.937-.012-2.491.017-1.769.141-3.825-.685a8.6,8.6,0,0,1-5.551.47,53.863,53.863,0,0,0,2.67,9.331,1.646,1.646,0,1,1-3.067,1.2ZM27.206,60.364l-1.313,3.279A11.072,11.072,0,0,0,32.8,66.03a3.342,3.342,0,0,0,3.4-3.276c0-9.3.02-8.854-.046-9.415a11.339,11.339,0,0,1-7.891,3.18,1.654,1.654,0,0,1,0-3.308,8,8,0,0,0,6.494-3.281,7.314,7.314,0,0,0-9.725-1.6c-.083.869-.3,1.335-1.35,4.339a5.613,5.613,0,0,1-1.743,2.478c-.116.1-.1.052-.1.214a10.383,10.383,0,0,0,1.6,5.558l.715-1.787a1.643,1.643,0,0,1,1.5-1.036h.029A1.655,1.655,0,0,1,27.206,60.364Zm-10.063-13.3L16.082,50.1a2.347,2.347,0,0,0,3.472,2.693c.968-.557,1.013-1.2,2.083-4.255a2.3,2.3,0,0,0-2.247-3.025A2.368,2.368,0,0,0,17.143,47.067Z" fill="#70577d"/>
</svg>
