<svg id="Place_Your_Design_Here_Double_Click_to_Edit_" data-name="Place Your Design Here (Double Click to Edit)" xmlns="http://www.w3.org/2000/svg" width="137" height="137" viewBox="0 0 137 137">
  <circle id="Shape" cx="68.5" cy="68.5" r="68.5" fill="#ebf2f2"/>
  <path id="Place_Your_Design_Here_" data-name="Place Your Design Here " d="M58.918,100.878c-.547-.214-1.091-.442-1.634-.679A20.513,20.513,0,1,1,44.042,62.939a12.26,12.26,0,0,1,.454-2.165,9.706,9.706,0,0,1-8.857-12.182,1.646,1.646,0,0,1,1.168-1.161,9.871,9.871,0,0,1,2.525-.328,9.722,9.722,0,0,1,9.556,7.771,8.843,8.843,0,0,1,2.479-1.112,1.64,1.64,0,1,1,.854,3.166,7.2,7.2,0,0,0-4.855,6.03,20.574,20.574,0,0,1,5.977,1.426,23.787,23.787,0,0,1,5.063-5.739c2.063-1.849,3.553-3.184,3.761-5.473.689-7.608,2.862-12.913,6.458-15.768a11,11,0,0,1,6.993-2.353,10.514,10.514,0,0,1,7.305-9.016A1.64,1.64,0,1,1,83.78,29.2a7.237,7.237,0,0,0-4.889,6.259,10.866,10.866,0,0,1,6.257,4.093c2.7,3.674,3.389,9.372,2.038,16.935-.418,2.334.8,4.217,2.347,6.6.631.976,1.309,2.022,1.923,3.187A37.754,37.754,0,0,0,94.5,59.2a1.644,1.644,0,0,1,1.078-1.076c.822-.258,1-.543,1.2-3.223.053-.711.114-1.517.232-2.4a1.637,1.637,0,0,1,.439-.913,7.607,7.607,0,0,1,5.185-2.125,5.51,5.51,0,0,1,.764.051,1.644,1.644,0,0,1,1.393,1.328l.048.265a10.316,10.316,0,0,0,3.565,6.863,1.634,1.634,0,0,1,.557.957,42.268,42.268,0,0,1-.484,15.651c-2.471,9.163-7.09,16.7-13.357,21.789a33.359,33.359,0,0,1-21.291,7.447A40.839,40.839,0,0,1,58.918,100.878ZM47.385,90.349c8.241,6.575,17.591,10.183,26.448,10.183,15.173,0,26.934-10.021,31.461-26.8a39.4,39.4,0,0,0,.519-13.664,12.815,12.815,0,0,1-4-7.23,4.485,4.485,0,0,0-1.6.694c-.061.562-.1,1.094-.14,1.614-.171,2.272-.347,4.612-2.66,5.769a41.73,41.73,0,0,1-4.811,9.8c-.027.043-.056.086-.086.128a43.792,43.792,0,0,1-9.5,10.21A40.007,40.007,0,0,1,58.32,89.72a39.444,39.444,0,0,1-9.377-1.143A5.842,5.842,0,0,0,47.385,90.349Zm-19.085-7A17.325,17.325,0,0,0,53.771,98.5a55.744,55.744,0,0,1-9.46-6.415,1.632,1.632,0,0,1-.5-1.8,9.41,9.41,0,0,1,3.821-4.829,1.661,1.661,0,0,1,1.382-.247,36.452,36.452,0,0,0,7.056,1.159,10.757,10.757,0,0,0-.381-7.135,1.635,1.635,0,0,1,.9-2.139,1.654,1.654,0,0,1,2.153.895,13.977,13.977,0,0,1,.718,8.431q1.611-.055,3.2-.259A17.291,17.291,0,1,0,28.3,83.346ZM70.688,39.965c-2.867,2.275-4.626,6.817-5.232,13.5-.324,3.569-2.619,5.626-4.838,7.614A21.34,21.34,0,0,0,56.3,65.864,20.384,20.384,0,0,1,66.08,85.551,39.584,39.584,0,0,0,89.365,69.625a25.1,25.1,0,0,0-2.606-4.762c-1.7-2.629-3.465-5.348-2.822-8.948,1.188-6.649.7-11.5-1.453-14.428a7.843,7.843,0,0,0-5.545-3.068,10.443,10.443,0,0,0-1.375-.094A7.628,7.628,0,0,0,70.688,39.965ZM38.645,50.416a6.456,6.456,0,0,0,7.1,7.06,6.456,6.456,0,0,0-7.1-7.06ZM72.506,96.678a1.639,1.639,0,1,1,.125-3.276,23.955,23.955,0,0,0,10.482-2.753,1.656,1.656,0,0,1,2.22.713,1.634,1.634,0,0,1-.717,2.206,27.429,27.429,0,0,1-11.849,3.115C72.62,96.683,72.531,96.68,72.506,96.678Zm13.94-6A1.629,1.629,0,0,1,86.8,88.39l.008-.005a1.658,1.658,0,0,1,2.311.327A1.63,1.63,0,0,1,88.792,91l-.038.028a1.662,1.662,0,0,1-2.309-.355ZM53.352,75.722l-.036-.035a1.632,1.632,0,0,1-.006-2.318,1.658,1.658,0,0,1,2.334-.006l.054.054a1.632,1.632,0,0,1-.013,2.318,1.658,1.658,0,0,1-2.333-.013Zm25.729-19a1.64,1.64,0,0,1-1.336-1.9c1.056-5.91.393-9.508-.807-10.009a1.636,1.636,0,0,1-.884-2.146,1.655,1.655,0,0,1,2.16-.878c4.009,1.67,3.725,8.32,2.781,13.6a1.648,1.648,0,0,1-1.623,1.354A1.609,1.609,0,0,1,79.081,56.724Z" fill="#70577d"/>
</svg>
