<svg id="Place_Your_Design_Here_Double_Click_to_Edit_" data-name="Place Your Design Here (Double Click to Edit)" xmlns="http://www.w3.org/2000/svg" width="137" height="137" viewBox="0 0 137 137">
  <circle id="Shape" cx="68.5" cy="68.5" r="68.5" fill="#ebf2f2"/>
  <path id="Place_Your_Design_Here_" data-name="Place Your Design Here " d="M90.906,108.541l-21.415-5.768-21.415,5.768A9.991,9.991,0,0,1,36.129,95.393a.009.009,0,0,1,0,0,5.463,5.463,0,0,1-3.769-8.321L43.781,69.032l4.865-14.481a15.981,15.981,0,0,1,13.323-10.8,10.409,10.409,0,0,1-2.919-7.235V34.343a10.441,10.441,0,1,1,20.883,0v2.175a10.414,10.414,0,0,1-2.92,7.235,15.979,15.979,0,0,1,13.323,10.8L95.2,69.032l2.145,3.388a1.659,1.659,0,1,1-2.8,1.777l-2.253-3.558a1.664,1.664,0,0,1-.171-.359l-4.93-14.671a12.663,12.663,0,0,0-12.013-8.641H63.806a12.665,12.665,0,0,0-12.014,8.641L46.862,70.28a1.626,1.626,0,0,1-.172.359L35.163,88.844a2.157,2.157,0,0,0,.305,2.673,2.142,2.142,0,0,0,3.256-.293L51.7,72.763,56.831,60.5v-1.46a1.659,1.659,0,1,1,3.317,0V81.165h18.68V59.043a1.659,1.659,0,1,1,3.317,0v1.443l5.143,12.278L100.26,91.225a2.142,2.142,0,0,0,3.561-2.38l-3.01-4.754a1.659,1.659,0,1,1,2.8-1.777l3.009,4.753a5.462,5.462,0,0,1-3.769,8.321l0,0a9.984,9.984,0,0,1-11.948,13.147ZM77.17,96.323a5.727,5.727,0,0,1-2.183,4.493l16.781,4.521a6.673,6.673,0,0,0,4.763-12.389L79.945,84.484H59.038L42.453,92.948a6.672,6.672,0,0,0,4.763,12.388l21.807-5.874c.034-.01.067-.019.1-.027l2.954-.8a2.4,2.4,0,0,0,.864-4.195,2.378,2.378,0,0,0-2.038-.454l-19.456,4.6a1.66,1.66,0,0,1-.762-3.231l19.456-4.6A5.695,5.695,0,0,1,75.6,92.384a1.663,1.663,0,0,1,.3.041L88.3,95.357a1.66,1.66,0,1,1-.763,3.231L77.165,96.137C77.166,96.2,77.17,96.26,77.17,96.323ZM82.146,81.88l11.681,5.961L84.47,74.525a1.632,1.632,0,0,1-.173-.313l-2.152-5.138Zm-27.46-7.668a1.682,1.682,0,0,1-.173.313L45.157,87.841l11.674-5.957V69.091Zm7.682-39.869v2.175a7.124,7.124,0,1,0,14.247,0V34.343a7.124,7.124,0,1,0-14.247,0ZM97.724,79.3a1.663,1.663,0,0,1,0-2.348l.062-.062a1.66,1.66,0,0,1,2.343,2.352l-.061.061a1.659,1.659,0,0,1-2.347,0Z" fill="#70577d"/>
</svg>
