<?xml version="1.0" standalone="no"?>
<!DOCTYPE svg PUBLIC "-//W3C//DTD SVG 20010904//EN"
 "http://www.w3.org/TR/2001/REC-SVG-20010904/DTD/svg10.dtd">
<svg version="1.0" xmlns="http://www.w3.org/2000/svg"
 width="816.000000pt" height="816.000000pt" viewBox="0 0 816.000000 816.000000"
 preserveAspectRatio="xMidYMid meet">
<metadata>
Created by potrace 1.14, written by Peter Selinger 2001-2017
</metadata>
<g transform="translate(0.000000,816.000000) scale(0.100000,-0.100000)"
fill="#000000" stroke="none">
<path d="M4025 6912 c-16 -11 -76 -68 -132 -128 -130 -140 -139 -149 -193
-213 -25 -30 -50 -59 -55 -65 -6 -6 -28 -33 -50 -61 -22 -27 -43 -52 -46 -55
-13 -11 -189 -250 -232 -315 -26 -39 -50 -74 -55 -80 -44 -54 -266 -453 -300
-541 -7 -16 -16 -36 -21 -44 -25 -38 -147 -367 -143 -382 4 -15 -14 -8 -68 28
-177 117 -493 291 -670 368 -176 77 -467 187 -530 201 -8 1 -44 12 -79 24 -73
24 -98 26 -138 10 -70 -26 -90 -70 -108 -237 -3 -23 -7 -57 -11 -75 -6 -35
-11 -73 -20 -162 -3 -33 -7 -76 -10 -95 -23 -208 -23 -678 0 -860 2 -19 7 -62
10 -95 10 -111 47 -302 87 -450 16 -60 31 -117 33 -125 2 -8 20 -62 40 -119
20 -57 36 -105 36 -106 0 0 -71 -1 -158 -1 -156 -1 -381 -10 -457 -19 -22 -3
-65 -7 -95 -9 -54 -4 -131 -13 -179 -21 -13 -2 -45 -7 -70 -10 -39 -6 -99 -16
-231 -39 -109 -19 -139 -35 -167 -90 -16 -30 -13 -98 6 -133 5 -10 21 -47 36
-83 68 -161 173 -355 278 -515 64 -97 167 -232 231 -305 61 -68 226 -231 275
-270 24 -19 55 -45 69 -57 29 -27 228 -161 292 -197 76 -43 241 -123 320 -154
226 -91 425 -141 740 -187 194 -27 648 -28 875 0 22 3 60 7 85 10 25 3 56 7
70 10 22 4 48 8 125 20 11 1 49 8 85 14 36 7 68 12 72 13 15 1 375 96 443 117
52 16 76 19 95 12 23 -9 161 -51 185 -57 6 -1 30 -7 55 -14 76 -19 293 -69
325 -74 17 -2 30 -5 30 -6 0 -1 32 -6 90 -13 17 -3 44 -7 60 -10 46 -9 124
-18 290 -33 176 -16 630 -9 758 11 12 2 45 6 72 10 28 3 57 8 65 10 8 3 31 7
50 9 41 6 45 7 165 36 50 12 97 23 105 25 8 2 65 20 125 40 471 157 859 426
1184 821 63 77 203 280 240 349 27 49 44 78 51 85 7 7 83 163 127 259 80 176
88 216 50 272 -24 35 -59 57 -105 65 -15 3 -61 11 -103 19 -42 8 -98 17 -125
20 -27 4 -56 8 -65 11 -9 2 -38 7 -65 9 -27 3 -60 7 -74 10 -14 3 -56 8 -95
11 -38 3 -86 7 -105 9 -79 9 -314 19 -457 19 -84 0 -153 2 -153 4 0 2 18 55
40 117 38 108 101 339 114 415 3 19 8 46 11 60 3 14 8 41 10 60 3 19 8 50 11
69 3 19 8 53 10 75 3 23 7 57 10 76 23 178 23 717 0 875 -3 17 -7 59 -10 95
-4 36 -8 81 -11 100 -3 19 -7 53 -10 75 -3 22 -7 51 -9 65 -2 14 -10 58 -16
98 -20 121 -79 167 -186 143 -30 -7 -56 -12 -59 -11 -3 0 -19 -7 -35 -15 -16
-8 -32 -15 -35 -14 -3 0 -49 -14 -103 -32 -53 -18 -99 -34 -102 -34 -9 -3 -45
-17 -77 -31 -17 -8 -34 -14 -37 -14 -10 0 -215 -90 -322 -140 -57 -28 -107
-50 -110 -49 -4 0 -10 -3 -13 -8 -3 -4 -24 -17 -46 -29 -85 -44 -153 -83 -243
-138 -51 -31 -97 -56 -101 -56 -5 0 -12 11 -15 25 -10 40 -92 229 -166 381
-68 141 -169 318 -242 426 -21 31 -38 61 -38 67 0 5 -4 11 -8 13 -4 2 -28 32
-52 68 -25 35 -50 71 -57 80 -7 8 -35 44 -63 80 -75 96 -78 99 -143 175 -72
83 -348 359 -431 430 -113 97 -168 115 -231 77z m269 -489 c105 -106 149 -153
246 -268 67 -80 74 -88 105 -130 17 -22 33 -44 38 -50 215 -281 402 -626 516
-948 17 -49 31 -94 31 -100 0 -7 -19 -25 -43 -42 -200 -141 -471 -401 -637
-611 -61 -77 -130 -174 -130 -183 0 -6 -5 -11 -10 -11 -6 0 -14 -8 -18 -17 -4
-10 -23 -43 -43 -73 -20 -30 -49 -77 -64 -105 -15 -27 -47 -84 -70 -126 -23
-41 -61 -121 -86 -177 -39 -91 -59 -122 -59 -92 0 25 -133 289 -213 425 -87
144 -235 351 -334 465 -113 130 -315 322 -449 426 -47 37 -50 42 -42 69 5 17
11 37 13 45 10 41 67 199 99 275 7 17 19 46 26 65 21 54 190 383 206 401 8 8
14 19 14 23 0 19 267 410 344 502 8 11 41 51 72 89 92 113 160 192 246 282
l50 52 40 -37 c23 -20 91 -87 152 -149z m-2749 -1089 c39 -14 75 -27 80 -28
12 -3 34 -11 90 -33 133 -51 297 -125 435 -197 176 -90 183 -94 265 -144 39
-24 79 -48 90 -55 66 -40 171 -112 173 -119 2 -4 8 -8 13 -8 16 0 241 -167
329 -244 103 -91 292 -288 370 -386 205 -258 358 -534 475 -860 43 -118 76
-244 71 -270 -3 -14 -8 -38 -11 -55 -3 -16 -9 -55 -14 -85 -21 -117 -31 -230
-38 -425 -3 -82 -6 -151 -7 -152 -2 -2 -16 16 -33 40 -119 165 -359 381 -590
530 -325 211 -821 383 -1278 443 -22 3 -51 8 -65 10 -14 3 -54 7 -90 10 -36 3
-74 7 -85 9 -11 2 -28 4 -37 4 -12 1 -28 31 -56 104 -43 112 -99 278 -106 317
-3 14 -14 61 -24 105 -18 74 -51 256 -57 315 -2 14 -5 45 -8 70 -26 206 -26
612 -2 830 2 19 7 64 10 99 3 35 9 91 15 125 5 33 10 64 10 69 0 9 -4 11 75
-19z m5150 -16 c2 -18 6 -46 9 -63 5 -28 12 -94 21 -190 40 -433 15 -887 -70
-1235 -57 -236 -153 -509 -179 -511 -54 -4 -201 -19 -241 -24 -98 -13 -255
-41 -335 -61 -114 -27 -158 -39 -230 -60 -47 -14 -94 -29 -105 -34 -11 -5 -60
-23 -110 -41 -179 -64 -403 -170 -530 -250 -102 -65 -245 -171 -245 -181 0 -4
-4 -8 -10 -8 -17 0 -198 -174 -268 -258 -20 -24 -46 -54 -57 -66 -11 -12 -28
-33 -37 -46 -17 -24 -17 -23 -18 60 -2 172 -16 352 -37 475 -3 22 -7 47 -9 55
-1 8 -6 35 -10 60 -15 85 -11 111 51 295 54 163 66 192 149 365 26 53 90 167
118 207 15 23 28 45 28 48 0 4 8 17 18 30 9 12 24 33 32 45 15 23 112 149 173
225 87 109 362 369 527 499 18 14 199 143 220 156 8 5 32 21 52 34 235 156
614 344 908 450 58 21 114 42 125 46 30 12 50 18 53 14 2 -1 5 -17 7 -36z
m-5130 -2262 c55 -4 120 -9 145 -11 25 -3 65 -7 90 -10 25 -2 61 -7 80 -10 19
-3 53 -7 75 -10 22 -3 51 -8 65 -10 356 -62 700 -178 950 -318 47 -27 99 -56
115 -65 17 -9 32 -20 35 -23 3 -3 28 -21 55 -39 274 -186 509 -457 669 -769
l57 -111 -28 -11 c-60 -23 -336 -90 -470 -115 -145 -26 -324 -48 -493 -59 -83
-5 -402 -6 -455 -1 -22 3 -76 7 -120 11 -44 4 -82 8 -85 10 -3 2 -29 6 -59 10
-30 4 -62 9 -73 11 -48 11 -117 24 -130 24 -4 1 -26 7 -48 15 -22 8 -44 15
-48 15 -4 0 -25 6 -47 12 -22 6 -42 12 -45 13 -19 4 -121 39 -147 51 -18 8
-50 21 -70 30 -42 17 -206 98 -238 117 -41 24 -220 141 -225 147 -3 3 -25 21
-50 40 -104 80 -261 236 -357 355 -71 88 -213 298 -261 386 -51 94 -124 241
-120 244 2 2 21 6 43 9 22 3 51 8 65 11 63 11 158 22 255 29 33 3 60 6 60 6 0
3 62 8 190 14 71 4 131 8 132 9 4 5 395 -1 488 -7z m5640 0 c72 -4 144 -9 160
-10 17 -2 64 -6 105 -10 41 -4 86 -9 100 -12 14 -2 50 -7 80 -10 30 -3 62 -7
70 -8 8 -2 36 -6 63 -11 26 -4 47 -9 47 -10 0 -4 -79 -165 -90 -185 -5 -8 -35
-60 -66 -115 -31 -55 -61 -101 -66 -103 -4 -2 -8 -10 -8 -18 0 -8 -4 -14 -10
-14 -5 0 -10 -5 -10 -11 0 -12 -100 -146 -174 -234 -65 -75 -174 -185 -250
-250 -33 -27 -64 -54 -70 -60 -14 -12 -59 -44 -145 -103 -184 -126 -440 -241
-682 -306 -100 -27 -235 -56 -284 -61 -16 -2 -43 -6 -60 -9 -27 -4 -112 -13
-205 -22 -45 -4 -381 -4 -440 0 -92 6 -226 18 -250 21 -25 4 -48 7 -143 20
-27 4 -59 8 -70 11 -12 2 -33 6 -47 9 -14 3 -41 8 -60 11 -28 4 -147 33 -290
69 -69 18 -134 36 -141 41 -15 9 148 313 202 378 5 6 37 47 71 91 243 311 592
553 1025 711 126 45 424 126 513 138 25 3 54 8 65 10 42 8 109 18 139 22 17 2
51 6 76 9 58 8 100 11 240 20 63 3 116 7 117 8 4 5 371 -1 488 -7z"/>
<path d="M3963 5940 c-17 -4 -18 -18 -19 -137 l-1 -133 136 0 137 0 -1 129 c0
71 -3 132 -7 136 -7 8 -219 12 -245 5z"/>
<path d="M3944 5262 l1 -136 132 0 c80 -1 134 3 136 9 2 6 3 66 3 135 l-1 125
-136 2 -135 1 0 -136z"/>
<path d="M3951 4850 c-4 -3 -7 -63 -7 -135 l1 -130 135 0 135 0 1 133 c0 86
-4 132 -10 133 -36 4 -249 3 -255 -1z"/>
<path d="M1641 4850 c-14 -9 -3 -162 24 -330 18 -112 88 -342 136 -445 13 -27
24 -52 24 -55 2 -10 62 -126 82 -158 l20 -33 109 72 c60 39 110 73 112 74 2 2
-17 43 -42 93 -122 241 -197 527 -200 760 0 12 -2 23 -5 23 -19 4 -254 3 -260
-1z"/>
<path d="M6259 4846 c-5 -43 -8 -80 -13 -136 -3 -36 -8 -76 -11 -90 -3 -14
-10 -50 -16 -80 -5 -30 -12 -66 -15 -79 -14 -69 -82 -251 -135 -360 -32 -68
-58 -125 -57 -126 2 -1 51 -34 110 -73 l107 -72 21 30 c12 17 46 83 76 148 72
153 69 145 98 237 62 199 97 389 100 550 l1 59 -132 1 c-87 1 -133 -3 -134 -9z"/>
</g>
</svg>
