<svg xmlns="http://www.w3.org/2000/svg" width="60.933" height="42.895" viewBox="0 0 60.933 42.895">
  <path id="Shape" d="M740.173,7396.958a42.541,42.541,0,0,0-9.475-.844c1.828-4.647,2.2-10.251,1.1-16.7a1.016,1.016,0,0,0-1.174-.831l-.07.015a35.8,35.8,0,0,0-9.7,4.388,31.863,31.863,0,0,0-9.668-13.672,1.012,1.012,0,0,0-1.345.091c-4.5,4.6-7.515,9.332-8.99,14.08a35.92,35.92,0,0,0-10.434-4.889,1.016,1.016,0,0,0-1.23.746c-.005.023-.01.047-.015.07-1.1,6.453-.721,12.055,1.1,16.7a42.513,42.513,0,0,0-9.475.844,1.013,1.013,0,0,0-.668.522,1.027,1.027,0,0,0-.043.849c4.414,11.1,13.016,13.661,20.006,13.661a33.306,33.306,0,0,0,10.388-1.73,33.33,33.33,0,0,0,10.389,1.735c6.989,0,15.592-2.559,20.006-13.661a1.024,1.024,0,0,0-.042-.849A1.011,1.011,0,0,0,740.173,7396.958Zm-11.727-.734a26.647,26.647,0,0,0-10.657,2.959,1,1,0,0,0-.469.265h0a17.547,17.547,0,0,0-5.27,4.7,24.472,24.472,0,0,0-.517-5.612c1.219-5.18,4.352-9.591,9.343-13.119a35.252,35.252,0,0,1,9.106-4.527C730.851,7386.9,730.326,7392.042,728.447,7396.225ZM710.641,7371.5c1.788,1.59,6.541,6.292,8.475,12.7a24.657,24.657,0,0,0-8.626,10.9,24.305,24.305,0,0,0-7.895-10.346C703.823,7380.33,706.515,7375.877,710.641,7371.5ZM691,7380.888a34.913,34.913,0,0,1,9.822,5.05h0a21.864,21.864,0,0,1,8.624,12.6,24.443,24.443,0,0,0-.518,5.612c-4.114-5.551-10.653-7.462-16.4-7.926-1.879-4.178-2.4-9.326-1.531-15.329Zm7.7,29.066c-7.6-.415-13.06-4.2-16.238-11.24,4.6-.787,21.205-2.661,26.68,9.844a30.6,30.6,0,0,1-10.443,1.4Zm23.572,0a30.653,30.653,0,0,1-10.443-1.4c5.474-12.5,22.075-10.627,26.685-9.841-3.183,7.044-8.639,10.826-16.242,11.243Z" transform="translate(-680.024 -7369.098)" fill="#745a82"/>
</svg>
