<svg xmlns="http://www.w3.org/2000/svg" width="101.591" height="71.1" viewBox="0 0 101.591 71.1">
  <path id="Vector_Smart_Object" data-name="Vector Smart Object" d="M62.752,80.867a55.866,55.866,0,0,1-17.319,2.868c-11.654,0-26-4.24-33.355-22.643a1.692,1.692,0,0,1,1.185-2.273,71.265,71.265,0,0,1,15.8-1.4c-3.041-7.705-3.676-16.992-1.839-27.686.007-.039.015-.078.025-.117a1.693,1.693,0,0,1,2.05-1.236,60.029,60.029,0,0,1,17.4,8.1c2.458-7.871,7.479-15.709,14.988-23.338a1.7,1.7,0,0,1,2.242-.152A52.835,52.835,0,0,1,80.041,35.656a59.841,59.841,0,0,1,16.167-7.272c.039-.01.078-.018.117-.025a1.693,1.693,0,0,1,1.958,1.377c1.837,10.7,1.209,19.983-1.839,27.686a71.265,71.265,0,0,1,15.8,1.4,1.7,1.7,0,0,1,1.187,2.277c-7.359,18.4-21.7,22.643-33.355,22.643A55.847,55.847,0,0,1,62.752,80.867ZM16.029,61.733c5.3,11.676,14.4,17.943,27.072,18.63v.005a51.289,51.289,0,0,0,17.411-2.319c-6.33-14.374-21.58-17.287-32.895-17.286A70.843,70.843,0,0,0,16.029,61.733ZM64.992,78.044A51.383,51.383,0,0,0,82.4,80.363v.005c12.677-.692,21.773-6.959,27.08-18.635a70.962,70.962,0,0,0-11.594-.969C86.57,60.764,71.32,63.676,64.992,78.044ZM80.069,39.7c-8.322,5.848-13.545,13.159-15.577,21.745a40.33,40.33,0,0,1,.862,9.3A29.181,29.181,0,0,1,74.14,62.95a1.663,1.663,0,0,1,.782-.44,44.633,44.633,0,0,1,17.768-4.9c3.134-6.934,4.007-15.464,2.562-25.412A58.915,58.915,0,0,0,80.069,39.7ZM30.258,32.189C28.806,42.14,29.68,50.672,32.812,57.6c9.577.768,20.478,3.937,27.338,13.137a40.213,40.213,0,0,1,.863-9.3A36.237,36.237,0,0,0,46.635,40.555a58.341,58.341,0,0,0-16.376-8.372ZM49.589,38.6A40.311,40.311,0,0,1,62.752,55.746,40.913,40.913,0,0,1,77.133,37.675C73.91,27.055,65.986,19.262,63,16.625,56.125,23.879,51.636,31.259,49.589,38.6ZM86.74,49.382a22.5,22.5,0,0,0,3.1-10.9h3.386a25.758,25.758,0,0,1-3.671,12.777Zm-54.465-10.9,3.386,0a22.641,22.641,0,0,0,3.1,10.9l-2.817,1.877A25.752,25.752,0,0,1,32.275,38.482Zm28.783,3.382V38.479h3.384v3.385Zm0-6.764V31.715h3.384V35.1Zm0-6.765V24.95h3.384v3.385Z" transform="translate(-11.957 -12.641)" fill="#745a82"/>
</svg>
